<svg xmlns="http://www.w3.org/2000/svg" viewBox="0 0 24 24">
  <g transform="translate(-172 -448)">
    <rect width="24" height="24" transform="translate(172 448)"/>
    <g id="outline-add_a_photo-24px" transform="translate(172 448)">
      <path id="Path_203" data-name="Path 203" class="cls-1" d="M0,0H24V24H0Z"/>
      <path id="Path_204" data-name="Path 204" class="cls-2" d="M21,6H17.83L16,4H10V6h5.12l1.83,2H21V20H5V11H3v9a2.006,2.006,0,0,0,2,2H21a2.006,2.006,0,0,0,2-2V8A2.006,2.006,0,0,0,21,6ZM8,14a5,5,0,1,0,5-5A5,5,0,0,0,8,14Zm5-3a3,3,0,1,1-3,3A3.009,3.009,0,0,1,13,11ZM5,6H8V4H5V1H3V4H0V6H3V9H5Z"/>
    </g>
  </g>
</svg>
